<svg xmlns="http://www.w3.org/2000/svg" xml:space="preserve" id="Capa_1" x="0" y="0" version="1.1" viewBox="0 0 207.12 217.51"><style>.st0{fill:#bcbcca}</style><path d="M206.59 83.82c-.83.01-1.69-.25-2.49-.44-1.47-.35-2.94-.75-4.4-1.16-3.7-1.04-7.38-2.15-11.06-3.28-5.75-1.77-11.44-3.79-17.46-4.47-8.76-.99-17.53.81-25.38 4.79-7.14 3.63-13.71 9.03-16.5 16.76-1.22 3.37-1.88 7.49-1.03 11.05.03.12.09.19.17.23a15.449 15.449 0 0 0-2.82 5.66c-.8 3.05-.85 6.5-.17 9.66-1.54-2.37-2.67-5.06-3.7-7.64-1.29-3.25-2.34-6.44-2.31-9.99.02-2.82.56-5.6.47-8.4.06-.06.1-.15.09-.25-.13-2.86.33-5.73 1.43-8.38.36-.86.78-1.74 1.3-2.53.99-.09 1.98-.54 2.73-1.15 1.67-1.35 2.46-3.74 1.81-5.8-.16-.52-.4-1.03-.74-1.46 0 0 0-.01-.01-.01-.01-.01-.01-.02-.02-.03-.02-.03-.05-.04-.07-.06l-.01-.01a.271.271 0 0 0-.32-.02c-1.38.42-2.7 1.36-3.52 2.54-1.12 1.6-1.24 3.88-.55 5.69-.54.83-.97 1.75-1.34 2.65-.67 1.62-1.1 3.33-1.32 5.06-.5-2.4-1.17-4.78-1.87-7.12-.52-1.76-1.08-3.51-1.66-5.26 1.36-2.44 1.74-5.64.63-8.22-.89-2.06-2.71-3.9-4.74-4.88-.16-.08-.33-.06-.45.06-1.47 1.37-2.23 3.59-2.21 5.55.04 2.98 1.65 5.89 4.34 7.25.55.28 1.16.53 1.78.64 1.28 3.76 2.48 7.6 3.32 11.49-.06-.12-.11-.23-.17-.35-1.39-2.77-3.32-5.23-5.75-7.16.01-.05.01-.11 0-.17-.21-1.02-.74-2.02-1.38-2.83-1.21-1.53-3.06-2.22-4.98-2.12-.54.03-1.11.09-1.63.25-.17.05-.26.19-.28.36-.08 1.05.33 2.21.91 3.06 1.22 1.77 3.48 2.76 5.6 2.32.38-.08.77-.22 1.14-.4 2.45 1.9 4.38 4.4 5.75 7.18.53 1.06 1 2.19 1.32 3.35.23 3.13-.41 6.21-.41 9.38 0 3.42.99 6.52 2.22 9.67.91 2.33 1.91 4.74 3.18 6.95-3.98-4.06-8.11-7.95-12.47-11.55-5.42-4.48-11.53-7.93-17.36-11.84-2.74-1.83-5.44-3.73-8.11-5.66-.67-2.21-1.1-4.52-1.41-6.8-.04-.27-.06-.54-.09-.81 1.21-2.02 3.28-3.37 5.18-4.68 2.29-1.57 4.6-3.12 6.65-5.01 3.31-3.04 5.37-7.01 6.68-11.27 1.37-4.48 1.98-9.28 1.65-13.96-.15-2.1-.48-4.21-1.14-6.21-.77-2.35-2.15-4.38-3.4-6.49-2.28-3.82-4.54-7.65-6.77-11.5-.09-.16-.3-.21-.47-.15-.01 0-.02 0-.03.01-.01.01-.02.01-.03.02-.07.04-.13.1-.16.19-.8 1.65-2.15 2.89-3.52 4.07-1.9 1.63-3.82 3.22-5.58 5.01-3.4 3.48-5.96 7.52-7.57 12.12-1.84 5.27-2.43 10.98-1.81 16.53.56 4.93 2.36 9.63 4.71 13.97 1.4 2.59 2.99 5.14 4.86 7.42.27 2.29.65 4.6 1.26 6.83-3.92-2.86-7.76-5.82-11.48-8.94-7.36-6.16-14.2-12.89-20.48-20.1-.56-1.89-1.02-3.82-1.39-5.76-.28-1.48-.51-3-.51-4.51 0-1.52.35-3.02.69-4.49.62-2.69 1.52-5.37 1.98-8.1.15.05.33.02.44-.14 1.99-2.73 4.03-5.56 5.55-8.59.58-1.15 1.04-2.39 1.42-3.67.95-.98 1.99-1.89 3.06-2.74 1.96-1.56 4.16-3.02 6.59-3.72 1.93.77 4.36.69 6.1-.48 1.28-.86 2.31-2.25 2.79-3.71.05-.1.05-.2-.01-.31-.01-.02-.03-.04-.04-.06-.01-.01-.02-.03-.03-.04-.01-.01-.02-.01-.03-.02-1.16-.96-2.82-1.27-4.27-1.03-2.11.36-3.92 1.86-4.62 3.88-.12.34-.2.71-.24 1.07-2.41.73-4.59 2.17-6.56 3.71-.82.64-1.6 1.33-2.37 2.04.53-2.2.82-4.49.92-6.67 1.36-.73 2.55-2 3.15-3.4.81-1.91.48-4.31-.6-6.06a.356.356 0 0 0-.36-.17c-.02 0-.04-.01-.07 0-1.17.19-2.31.97-3.04 1.87-1.44 1.78-1.76 4.34-.73 6.39.23.45.53.9.9 1.27-.11 2.53-.47 5.22-1.2 7.75l-.02.02c-.1.1-.12.22-.09.33-.4 1.3-.88 2.56-1.49 3.72-1.43 2.71-3.21 5.26-5.02 7.75.24-2.08 0-4.29-.22-6.35-.26-2.54-.6-5.33-1.65-7.73 1.04.59 2.24.98 3.35.67 1.41-.39 2.42-1.79 2.92-3.1.05-.12-.01-.28-.1-.36-1.2-1.22-3.06-1.94-4.72-1.46.28-.87.24-1.87-.15-2.67-.45-.95-1.36-1.73-2.29-2.2-.15-.07-.34-.07-.45.06-.97 1.01-1.81 2.47-1.78 3.92-1.06-.85-2.41-1.41-3.71-1.67a.387.387 0 0 0-.46.26c-.45 1.2-.48 2.72.15 3.85.4.72 1.12 1.4 1.94 1.76-1.06.64-1.89 1.74-2.38 2.84-.08.17-.06.31.06.45 1.1 1.41 3.03 1.47 4.41.45 1-.74 1.76-1.87 2.27-3.04 1.19 2.36 1.55 5.24 1.83 7.81.23 2.18.53 4.56.21 6.75-.43 2.98-1.44 5.88-2.11 8.81-.64 2.79-.79 5.28-.34 8.11.28 1.77.66 3.54 1.13 5.28a187.65 187.65 0 0 1-9.58-12.17c-2.09-2.89-3.92-6.02-6.11-8.82-.29-.37-.61-.73-.93-1.08-.55-3.38-1.07-6.76-1.56-10.15 1.31-1.44 2.33-3.17 3.24-4.87.95-1.77 1.79-3.58 2.26-5.54.57-2.4.9-4.89 1.12-7.35 1.67-.7 3.22-1.97 4.16-3.49 1.41-2.28 1.37-5.37.29-7.79-.01-.01-.01-.03-.01-.04-.01-.02-.02-.03-.03-.05-.01-.01-.02-.03-.03-.04a.314.314 0 0 0-.3-.1c-1.46.06-2.94.8-4 1.77-2.12 1.94-2.96 5.18-1.97 7.89.25.69.59 1.38 1.07 1.93.02.02.05.02.07.04-.21 2.28-.52 4.58-1.03 6.81-.43 1.88-1.19 3.6-2.09 5.31-.82 1.56-1.74 3.15-2.88 4.53-.22-1.57-.43-3.15-.63-4.72 0-.02 0-.05-.01-.08-.12-.94-.24-1.89-.34-2.83-.19-1.7-.42-3.46-.36-5.18 1.46-1.31 2.52-3.26 2.68-5.2.18-2.15-.81-4.47-2.31-6-.07-.12-.21-.19-.38-.12-4.02 1.63-4.77 7.29-2.09 10.39.38.44.84.87 1.35 1.17-.03 1.65.19 3.32.37 4.95.06.58.14 1.15.21 1.72-.47-.48-1-.89-1.59-1.26-1.17-.73-2.17-1.56-3.03-2.65-1.05-1.34-1.94-2.87-2.34-4.53-.12-.48-.21-1.01-.17-1.52.02-.03.06-.06.07-.1.71-1.82.59-4.15-.55-5.77-.83-1.18-2.15-2.12-3.54-2.53-.12-.07-.28-.06-.4.08-.91 1.13-1.17 2.75-.86 4.14.42 1.92 1.85 3.54 3.74 4.12.25.08.51.13.78.17-.02.5.08 1.01.18 1.48.36 1.59 1.16 3.08 2.12 4.39.88 1.21 1.91 2.26 3.17 3.07 1.01.64 1.89 1.24 2.58 2.24.22 1.7.44 3.4.68 5.09.46 3.22.95 6.43 1.47 9.64-1.24-1.28-2.59-2.47-3.93-3.61-1.05-.9-2.12-1.78-3.19-2.64-.09-1.96-.51-3.87-1.3-5.66-.26-.59-.57-1.17-.88-1.74-.18-.32-.39-.63-.44-.96a.317.317 0 0 0-.14-.22.51.51 0 0 0 .17-.21c.45-1.15.37-2.63-.35-3.65a4.323 4.323 0 0 0-2.27-1.62c-.02-.01-.05 0-.07-.01h-.05c-.03 0-.06.01-.09.01-.02.01-.04.01-.06.02-.02.01-.03.02-.05.03-.02.01-.03.02-.05.03-.01.01-.01.02-.02.03 0 .01-.01.01-.01.02-.56.73-.73 1.74-.54 2.63.27 1.23 1.19 2.26 2.39 2.63.18.05.37.09.56.11-.1.08-.17.21-.14.37.06.35.28.69.45 1 .29.53.58 1.07.84 1.62.71 1.55 1.11 3.2 1.26 4.89-3.5-2.78-7.13-5.42-10.81-7.95-.64-.44-1.29-.87-1.94-1.3 1.75-.38 3.58-1.15 4.72-2.47 1.68-1.94 1.17-4.97.12-7.1a.392.392 0 0 0-.32-.19c-2.66.09-5.52 1.48-6.56 4-.56-1.13-1.53-2.11-2.64-2.61-1.61-.73-3.66-.52-5.28.08-.15.05-.29.19-.28.36.13 2.21.97 4.85 2.85 6.23-2.18.21-4.36 1.18-6.1 2.44-.17.12-.23.32-.13.51.82 1.61 2.31 3.12 4.06 3.66 1.37.42 3.2.31 4.56-.44-.53 1.96-.15 4.17.64 5.99.05.12.2.18.32.19 2 .17 3.91-1.04 4.6-2.92.79-2.17.26-4.77-.69-6.93 4.47 2.91 8.78 6.13 12.95 9.45 2.43 1.94 4.84 3.94 7.04 6.13 2.17 2.17 3.71 4.72 5.45 7.23 3.58 5.18 7.39 10.18 11.43 14.99a90.827 90.827 0 0 0-10.89-6.48c-3.25-1.64-6.73-3.25-10.35-3.89.06-.08.09-.18.06-.31-.56-2.35-1.78-4.77-3.42-6.55-1.31-1.43-2.92-2.66-4.58-3.67-.04-.7-.26-1.42-.6-2.03-.65-1.15-1.81-1.79-3.09-1.95-.31-.04-.64-.07-.95-.04-.05.01-.11.02-.15.04-.03.01-.06.03-.08.05-.01.01-.02.01-.03.02-.02.02-.03.04-.04.06-.02.02-.03.05-.04.08 0 .01-.01.01-.01.02-.24.78-.08 1.69.27 2.4.63 1.28 2.04 2.15 3.47 2.1.28-.01.57-.05.84-.14 1.58.96 3.1 2.13 4.37 3.48 1.6 1.7 2.78 4.05 3.32 6.32l-.19-.03c-.5-.07-1.01-.11-1.51-.13-.01 0-.02-.01-.03-.01-2.8-.11-5.36-1.7-7.46-3.44-1.12-.92-2.19-1.94-3.12-3.06-.03-.84-.29-1.72-.7-2.44-.75-1.32-2.08-2.06-3.56-2.26-.37-.05-.75-.08-1.12-.04-.05.01-.11.02-.15.04-.03.01-.06.03-.08.05-.01.01-.02.01-.03.02-.02.02-.03.04-.04.06-.02.02-.03.05-.04.08 0 .01-.01.01-.01.02-.27.89-.09 1.94.31 2.76.73 1.48 2.36 2.48 4.01 2.42.31-.01.63-.06.93-.15 1.01 1.2 2.18 2.29 3.39 3.27 1.37 1.1 2.91 2.11 4.57 2.75-1.9.19-3.78.62-5.57 1.27-1.64.6-3.31 1.35-4.76 2.35 1.03-1.12 1.92-2.58 1.83-4.06-.11-1.74-1.56-3.25-3-4.1a.395.395 0 0 0-.38 0c-1.72 1.21-2.93 3.26-2.63 5.35-.92-.51-2.06-.7-3.06-.47-1.29.3-2.44 1.28-3.22 2.33a.37.37 0 0 0 0 .38c1.01 1.35 2.61 2.7 4.38 2.89-1.28 1.09-2.24 2.62-2.83 4.15-.06.15.04.35.17.42 1.39.8 3.26 1.16 4.77.5.88-.38 1.74-1.08 2.25-1.95.52 1.45 1.67 2.69 2.94 3.53.11.07.26.06.38 0 1.7-.92 2.3-2.92 1.58-4.66-.59-1.41-1.77-2.61-3.07-3.49 3.82-2.77 9.03-4.09 13.68-3.76 4.1.29 8.02 2.06 11.66 3.87 3.18 1.58 6.25 3.39 9.23 5.33 1.48.96 2.95 1.95 4.37 3.01 5.11 5.89 10.57 11.47 16.42 16.66 5.28 4.69 10.84 9.05 16.55 13.2.01.02.01.05.02.07a75.503 75.503 0 0 1-7.82 2.96c-.7-.87-1.58-1.63-2.43-2.33-2.94-2.41-6.28-4.32-9.7-5.95-5.25-2.5-10.94-4.87-16.77-5.41-4.86-.45-10.25-.18-14.92 1.38-2.5.84-4.89 2-7.31 3.03-2.47 1.05-5.2 2.36-7.93 2.45h-.01c-.06 0-.12.02-.17.05 0 0-.01 0-.01.01-.03.02-.06.05-.09.09-.08.08-.11.19-.09.3 0 .02.01.04.02.07.01.02 0 .04.02.05l.01.01c.01.01.01.02.02.02 2.07 2.78 4.16 5.55 6.28 8.29 2.9 3.76 5.72 7.53 9.61 10.34 9.93 7.17 25.33 9.87 35.65 2 4.37-3.33 7.09-8.29 8.05-13.66 2.79-.9 5.53-1.96 8.22-3.17.03-.01.04-.05.07-.08.5.36.99.73 1.49 1.09 3.67 2.6 7.41 5.11 11.2 7.55 2.88 1.85 5.85 3.59 8.61 5.63 5.2 3.84 9.92 8.31 14.46 12.89.59.59 1.16 1.2 1.74 1.79-3.39-1.02-6.85-1.04-10.34-.14-2.28.58-4.32 1.59-6.43 2.6-4.28 2.06-8.75 3.76-13.35 4.85-2.32-.19-4.51-.68-6.26-2.3-2.06-1.91-2.68-4.42-3.12-7.11 1.18-1.43 1.72-3.46 1.59-5.26-.22-2.99-2-5.76-4.75-7.01-.59-.27-1.22-.49-1.87-.57-.12-.02-.27.08-.32.19-1.41 2.58-1.7 5.98-.37 8.63.98 1.96 2.84 3.67 4.85 4.55.01.01.03 0 .04.01.06.03.12.04.18.03.47 2.75 1.23 5.27 3.39 7.2 1.32 1.18 2.87 1.77 4.51 2.1-.48.09-.96.17-1.44.25-1.2-.15-2.39-.47-3.53-.84-3-.97-5.78-2.57-8.04-4.78.25-1.07.05-2.29-.42-3.25-.92-1.88-2.98-3.16-5.08-3.09-.49.02-1.02.08-1.47.26-.16.06-.28.18-.28.36.01 1.14.36 2.35.92 3.34.95 1.67 2.65 2.59 4.52 2.84.42.05.84.08 1.27.05 2.32 2.28 5.17 3.93 8.25 4.95.52.17 1.06.33 1.61.47-2.12.24-4.27.33-6.43.25-2.67-.1-5.4-.35-8-1.01h-.05c-.55-1.28-1.54-2.43-2.64-3.2-2.59-1.82-6.25-1.99-8.96-.35-.66.4-1.34.91-1.82 1.52-.1.13-.15.3-.06.45 1.16 1.97 3.16 3.64 5.32 4.36 2.71.9 5.99.19 8.3-1.46.04-.03.08-.07.1-.11.07-.08.1-.19.07-.32l-.03-.09c3.73.89 7.71 1.19 11.63.98-1 .38-1.97.85-2.9 1.39-1.02.6-2.05 1.3-2.9 2.14-1.14-.06-2.36.22-3.37.73-1.67.83-2.7 2.46-3.06 4.26-.09.45-.16.92-.15 1.38 0 .17.1.28.23.33.02.01.03.02.05.03 1.18.47 2.64.29 3.76-.23 1.86-.87 3.16-2.78 3.21-4.83.01-.38-.03-.77-.11-1.14.77-.76 1.69-1.38 2.61-1.93a19.34 19.34 0 0 1 8.05-2.64.42.42 0 0 0 .28-.14c.31-.06.61-.12.92-.19-.81.58-1.59 1.21-2.3 1.89-1.81 1.75-2.75 4-3.08 6.46-1.42.37-2.79 1.12-3.92 2.03-2.28 1.85-3.3 4.64-3.11 7.53.05.84.17 1.71.44 2.51.04.11.11.19.2.23.05.03.1.04.16.05 1.55.11 3.25-.49 4.5-1.37 2.63-1.85 4.02-5.27 3.36-8.42-.17-.8-.46-1.64-.9-2.34.31-2.56 1.37-4.78 3.29-6.51 1.07-.96 2.25-1.82 3.5-2.54a67.45 67.45 0 0 0 10.92-3.78c2.26-1 4.44-2.29 6.77-3.11 4.38-1.52 8.88-1.61 13.22.05.11.12.23.23.34.35-3.31.43-6.8 1.8-9.04 4.22-1.74 1.87-2.41 4.19-2.44 6.63-1.95.57-3.71 2.75-4.73 4.15-2.3 3.13-3.86 6.83-5.13 10.48-1.51 4.35-2.49 8.88-3.08 13.44-.98 7.55-1 15.3-.31 22.88.52 5.6 2.64 11.17 4.49 16.43 1.58 4.49 3.52 8.88 5.04 13.39-.12.35-.24.7-.35 1.05-.15.46.58.66.72.2.02-.08.06-.15.08-.23.08.05.18.07.28.04 3.4-1 6.6-3.28 9.35-5.42 3.44-2.68 6.53-5.79 9.32-9.13 3.19-3.82 6.27-7.9 8.02-12.61 3.01-8.1 2.23-17.09-.2-25.23-1.55-5.19-3.74-10.29-6.63-14.88-2.15-3.4-4.55-6.71-7.32-9.64-2.12-2.24-5.19-5.31-8.57-5.06-.09 0-.19.01-.28.02.03-1.09.17-2.16.54-3.17 1.55-4.29 6.56-6.47 10.89-6.87 4.19 4.41 8.23 8.95 12.19 13.55 11.22 13.05 21.81 26.65 32.11 40.44 1.18 1.58 2.35 3.16 3.52 4.74.28.38.94.01.65-.38-10.13-13.69-20.52-27.21-31.46-40.27-5.22-6.24-10.57-12.48-16.2-18.44.01-.05.01-.1-.01-.16-1.02-3.08-1.21-6.63-.66-9.81.44-2.52 1.45-4.91 3.05-6.89 3.68 2.27 7.72 3.85 12 4.57 3.31.55 6.65.57 9.99.5 4.31-.09 8.59-.35 12.88-.85 6.51-.76 13.03-1.87 19.31-3.78 2.99-.91 5.95-2 8.71-3.48 3.14-1.68 5.79-4.02 8.15-6.68 2.49-2.81 4.61-6.03 5.87-9.58.47-1.32.91-2.77.95-4.19.07-.13-.11-.31-.31-.31zm-83.33-4.01c.67-.95 1.75-1.72 2.87-2.11.01.01.01.02.02.02a4.35 4.35 0 0 1 .51 3.31c-.4 1.65-1.61 3.04-3.26 3.51-.08.02-.14.04-.22.05-.07-.2-.35-.32-.57-.2-.42-1.52-.26-3.28.65-4.58zm-12.61-10.2c.27-.52.61-1.03 1.02-1.46 1.7.9 3.22 2.42 4.04 4.14 1.07 2.22.85 5-.2 7.24-.25-.22-.75-.03-.61.36.02.04.03.09.04.13-4.25-1.08-6.24-6.64-4.29-10.41zm-2.16 15.25c-1.65-.52-2.94-1.89-3.28-3.59-.04-.21-.06-.43-.07-.64 1.57-.39 3.43-.16 4.71.85.91.72 1.6 1.82 1.94 2.96-.09.06-.15.16-.17.27-.96.44-2.14.46-3.13.15zm-6.18-42.3c.88 1.92 1.36 4.03 1.61 6.12.56 4.62.11 9.39-1.07 13.88-1.16 4.42-3.1 8.72-6.43 11.93-2.29 2.2-4.95 3.92-7.54 5.73-1.57 1.09-3.19 2.25-4.35 3.79-.52-5.13-.32-10.36.83-15.39.77-3.36 2.13-6.39 3.43-9.56 1.15-2.8 2.06-5.69 2.76-8.63 1.26-5.24 1.91-10.62 2.11-16 .08-2.21.11-4.45-.01-6.67 1.45 2.49 2.9 4.97 4.37 7.45 1.44 2.42 3.12 4.79 4.29 7.35zM75.32 65.37c-1.77-10.46 1.26-21.66 8.63-29.35 1.87-1.96 3.96-3.66 6-5.43 1.09-.94 2.14-1.93 2.94-3.12.47 7.18-.24 14.62-1.79 21.6-.68 3.07-1.57 6.1-2.72 9.02-1.25 3.17-2.71 6.16-3.54 9.49-1.33 5.29-1.59 10.81-1.07 16.23-4.11-5.3-7.35-11.88-8.45-18.44zm-2.8-47.13c1.32-1.58 3.58-2.31 5.55-1.64.33.11.65.26.95.45.04.03.08.05.12.08-.45 1.21-1.31 2.36-2.36 3.07-1.44.96-3.37 1.09-5.02.58-.03-.14-.12-.27-.27-.3.13-.79.52-1.64 1.03-2.24zm-8.55-7.08c.24-.12.5-.22.77-.29.87 1.57 1.13 3.64.37 5.28-.55 1.18-1.56 2.21-2.7 2.86-2.2-2.3-1.21-6.48 1.56-7.85zM48.98 26.99c-1.07.99-2.6 1.19-3.62.12.6-1.22 1.61-2.4 2.95-2.71.41-.1.33-.76-.1-.74-1.09.05-2.2-.9-2.63-1.82-.39-.83-.34-1.86-.08-2.76 1.46.35 2.94 1.09 3.89 2.26.29.36.75-.1.59-.45.05.11-.06-.21-.08-.28-.07-.3-.1-.6-.08-.91.05-1.12.62-2.1 1.36-2.92.63.37 1.23.87 1.6 1.49.57.93.48 2.25-.15 3.14-.22.31.21.71.51.51 1.49-.96 3.37-.36 4.6.76-.43.99-1.24 2.08-2.31 2.37-1.31.36-2.9-.55-3.87-1.33 0 0-.01 0-.01-.01l-.02-.02a.365.365 0 0 0-.35-.05c-.02.01-.04.01-.07.02-.01 0-.02.01-.02.02a.27.27 0 0 0-.08.07c-.02.02-.04.05-.05.08-.01.01-.02.03-.02.04 0 .01 0 .02-.01.02-.4 1.15-1.07 2.29-1.95 3.1zM39.46 9.96a6.366 6.366 0 0 1-.47-3.5c.37-2.38 1.96-4.52 4.28-5.3.36-.12.73-.21 1.09-.25a9.38 9.38 0 0 1 .55 2.21c.2 1.66-.07 3.36-.99 4.77-.79 1.22-2.04 2.27-3.4 2.91-.1-.23-.45-.25-.63-.05-.15-.25-.31-.51-.43-.79zm-17.13 1.09c-1.52-1.14-2.27-3.25-1.72-5.08.1-.32.23-.63.39-.92.02-.04.05-.07.07-.11 1.12.39 2.2 1.15 2.87 2.1.98 1.38 1.1 3.29.57 4.88-.75-.06-1.56-.4-2.18-.87zm9.08-5.3c.26-.22.53-.41.82-.58.04-.03.09-.05.14-.07 1.27 1.4 2.09 3.42 1.93 5.3-.14 1.62-1 3.25-2.17 4.42a.404.404 0 0 0-.44.17c-2.98-2.07-2.95-6.95-.28-9.24zm-8.39 16.77c-.88-.67-1.31-1.89-.99-2.95.06-.18.12-.33.21-.5.12.05.23.1.39.19.45.25.88.57 1.18 1 .56.79.62 1.84.36 2.76-.04-.01-.08-.02-.12-.02-.39-.09-.72-.24-1.03-.48zm-11.48 9.56c-.45.16-.95.12-1.39.23.03.03.04.08-.03.19.01-.01-.02-.09-.05-.17h-.02c-.35.11-.15-.03 0-.04-.04-.11-.1-.23-.11-.27-.67-1.95-.97-4.23.07-6.09.2-.36-.31-.79-.59-.45-1.18 1.41-3.64 1.66-5.25 1.03-1.32-.52-2.43-1.66-3.14-2.9 1.97-1.35 4.43-2.32 6.82-2.17.44.03.49-.61.1-.74-2.39-.78-3.38-3.67-3.57-5.94 1.33-.44 2.92-.61 4.23-.12 1.39.52 2.55 1.91 2.86 3.36.07.35.66.37.72 0 .35-2.01 1.99-3.55 3.87-4.16.5-.16 1.01-.28 1.53-.35.11-.02.35 0 .54-.02.04.09.09.19.09.19.16.39.29.8.4 1.21.3 1.16.43 2.45-.01 3.59-.41 1.04-1.3 1.74-2.26 2.25-1.12.59-2.4.99-3.65 1.17-.2.03-.28.18-.26.33-.01.07 0 .14.04.22 1.49 2.7 2.94 8.27-.94 9.65zm8.83 8.05c-.5.05-1.01-.01-1.47-.2-1.07-.45-1.84-1.52-1.86-2.66 0-.1 0-.2.01-.29 0-.04.01-.07.01-.11.58-.01 1.18.11 1.71.35 1 .47 1.58 1.39 1.81 2.44l.06.31v.02c0 .01.01.04.01.04v.04c-.02.01-.05.01-.07.02-.11.03-.15.03-.21.04zm-9.14.29c0-.23 0-.37.03-.53.71-.02 1.46.12 2.09.42 1.19.55 1.88 1.65 2.15 2.9.04.21.07.38.09.56-2.05.57-4.33-1.22-4.36-3.35zm4.47 17.7c.85 1.46.66 3.24-.79 4.16-1.33-.93-2.56-2.4-2.66-4.04-.03-.49-.69-.47-.75 0 .02-.17-.04.17-.06.21-.08.23-.17.45-.29.67-.46.81-1.28 1.47-2.16 1.77-1.14.4-2.5.14-3.58-.41.69-1.67 1.88-3.31 3.45-4.2.37-.21.12-.79-.29-.69-1.84.49-3.66-.91-4.74-2.27.6-.74 1.48-1.47 2.4-1.74 1.15-.34 2.57.03 3.43.88.32.32.75-.08.59-.45-.79-1.86.29-4.07 1.89-5.3 1.19.76 2.42 2.06 2.42 3.52 0 1.58-1.29 3.12-2.42 4.12-.11.1-.13.22-.1.32.01.1.06.2.18.27 1.37.73 2.7 1.84 3.48 3.18zm-2.66-3.57zm18.59 31.06c4.39-1.82 9.07-2.47 13.81-2.45 6.29.03 12.08 2.04 17.78 4.55 3.75 1.65 7.43 3.59 10.7 6.08.97.74 2.22 1.77 3.02 2.68a75.155 75.155 0 0 1-23.24 3.26c-5.41-.08-10.68-.68-15.89-2.16-4.41-1.25-8.7-2.93-12.84-4.89a76.65 76.65 0 0 1-5.09-2.64c1.62-.26 3.21-.86 4.72-1.45 2.37-.93 4.68-2 7.03-2.98zm39.3 23.21c-4.63 4.3-11 6.05-17.21 5.8-6.31-.26-12.63-2.34-17.9-5.8-4.04-2.65-6.9-6.23-9.82-9.99-2.01-2.58-3.98-5.18-5.93-7.8 5.04 2.85 10.51 5.11 16 6.8 10.24 3.16 21.37 3.4 31.91 1.63 3.11-.52 6.17-1.27 9.18-2.21-.89 4.39-2.93 8.51-6.23 11.57zm8.42 7.69c-1.33-2.39-1.13-5.54.1-7.95.04.01.07.01.08.02.3.07.6.17.88.28.99.38 1.89.98 2.62 1.75 2.04 2.15 2.72 5.57 1.41 8.26-.25.52-.58 1.04-.98 1.48-1.68-.82-3.21-2.22-4.11-3.84zm-4.37 7.81c-1.56-.72-2.48-2.16-2.84-3.8-.06-.28-.1-.57-.12-.86.94-.27 2.02-.18 2.9.19 1.68.71 2.92 2.38 2.94 4.22 0 .29-.02.54-.07.8-.95.03-1.96-.16-2.81-.55zm-9.6 8.01c-1.89-.63-3.65-2.09-4.73-3.79 3.07-3.51 9.29-2.61 11.6 1.29.24.4.44.83.58 1.28-2.13 1.42-5.01 2.03-7.45 1.22zm13.59 6.69c-.79 1.7-2.56 2.88-4.45 2.8-.29-.01-.59-.06-.88-.14.04-.92.3-1.88.73-2.68.82-1.52 2.34-2.37 4.02-2.6.3-.04.6-.06.9-.06.19.87.05 1.88-.32 2.68zm8.25 6.82c-.78 2.56-2.82 4.62-5.45 5.18-.4.08-.81.13-1.22.13-.73-2.51-.43-5.52 1.16-7.61 1.17-1.55 3.04-2.73 4.94-3.24.97 1.61 1.11 3.77.57 5.54zm19.64 59.54c-2.01-5.49-4.06-11.08-5.2-16.83-.52-2.6-.6-5.28-.71-7.93-.16-3.79-.17-7.58.06-11.36.54-9 2.33-18.26 6.6-26.28 1.26-2.37 2.84-4.91 5.12-6.44.3-.2.68-.43 1.07-.6.01.21.02.42.04.64.34 3.68 1.24 7.3 2.11 10.89 2.26 9.36 4.26 18.74 3.69 28.44-.5 8.58-1.85 17.43-4.34 25.68-1.35 4.48-3.29 8.73-4.85 13.13-1.12-3.14-2.45-6.22-3.59-9.34zm15.73-65.08c2.52 2.62 4.71 5.57 6.71 8.61 2.78 4.22 4.94 8.82 6.57 13.61 2.62 7.71 3.88 16.21 1.79 24.2-1.29 4.93-3.97 9.07-7.07 13.06-2.72 3.5-5.75 6.79-9.13 9.67-3.02 2.58-6.66 5.38-10.54 6.62-.02-.07-.05-.13-.07-.2 1.35-3.97 3.06-7.8 4.41-11.77 2.33-6.87 3.53-14.06 4.41-21.24.64-5.23 1.01-10.43.61-15.7-.34-4.56-1.13-9.07-2.13-13.53-.87-3.92-1.92-7.8-2.74-11.73-.4-1.95-.89-4.08-.95-6.18.1-.02.2-.04.29-.04 3.09-.22 5.89 2.6 7.84 4.62zm78.31-44.4c-2.27 2.87-4.97 5.57-8.13 7.45-2.58 1.54-5.38 2.66-8.22 3.6-6.17 2.03-12.62 3.21-19.05 4.03-4.18.53-8.41.97-12.62 1.01-3.25.03-6.49.17-9.73-.19-4.83-.54-9.4-2.16-13.54-4.67.1-.1.18-.21.28-.32 2.59-2.68 6.28-4.43 9.54-6.13 7.3-3.81 15.13-6.95 23.23-8.51 3.53-.68 7.03-.75 10.61-.92 3.67-.18 7.34-.5 10.98-.94 7.17-.87 14.95-1.89 21.5-5.12.43-.21.05-.86-.38-.65-6.26 3.08-13.7 4.09-20.55 4.95-3.78.47-7.58.81-11.38 1-3.51.18-6.96.23-10.42.86-8.17 1.48-16.07 4.62-23.43 8.4-3.29 1.69-6.93 3.44-9.67 5.97-.34.31-.66.65-.96.99-.62-2.8-.23-5.97.5-8.68 2.07-7.68 8.07-13.31 14.83-17.1 7.93-4.44 16.91-6.65 26-5.8 5.85.55 11.38 2.45 16.96 4.17 3.98 1.23 7.96 2.44 11.97 3.57 1.55.44 3.11.87 4.68 1.24.73.17 1.52.39 2.29.45-.27 4.08-2.86 8.26-5.29 11.34z" class="st0"/><path d="M10.05 32.3c.01.01.01.02.01.04.03-.01.05-.01.08-.02-.01-.02-.05-.03-.09-.02zM25.12 34.43a4.323 4.323 0 0 0-2.27-1.62c-.02-.01-.05 0-.07-.01h-.05c-.03 0-.06.01-.09.01-.02.01-.04.01-.06.02-.02.01-.03.02-.05.03-.02.01-.03.02-.05.03-.01.01-.01.02-.02.03 0 .01-.01.01-.01.02-.56.73-.73 1.74-.54 2.63.27 1.23 1.19 2.26 2.39 2.63.2.06.41.1.61.12 1.31 1.49 2.53 3.3 2.77 5.32.06.48.06 1-.03 1.44-.03.14-.06.27-.1.4-.01.04-.03.07-.03.09 0-.01.01-.01.01-.03-.2.43.44.82.65.38.33-.71.34-1.59.25-2.34-.26-2.17-1.5-4.07-2.91-5.69.39-1.12.28-2.49-.4-3.46zm-1.44 2.64c-.88-.67-1.31-1.89-.99-2.95.06-.18.12-.33.21-.5.12.05.23.1.39.19.45.25.88.57 1.18 1 .56.79.62 1.84.36 2.76-.04-.01-.08-.02-.12-.02-.38-.09-.71-.24-1.03-.48zM27.53 45.58c-.01.02-.01.02 0 0z" class="st0"/></svg>